<svg xmlns="http://www.w3.org/2000/svg" width="612" height="327"><path fill="#E2E42B" d="M481.949 154.387h105.558a9 9 0 019 9v69.111a9 9 0 01-9 9H481.949a9 9 0 01-9-9v-69.111a9 9 0 019-9"/><path fill="#0066B3" d="M50.087 211.609c-.557 1.562-2.485 6.447-5.784 14.656-2.436 6.092-3.654 10.423-3.654 12.991 0 2.82 2.038 5.036 6.115 6.648-6.344 5.085-13.796 8.837-22.357 11.254-5.69-1.915-11.178-4.71-16.464-8.385 5.186-8.813 13.821-28.2 25.905-58.161-4.18-7.503-7.78-15.044-10.8-22.622-3.021-7.578-5.01-14.062-5.967-19.45l23.566-12.395c.352-.15.579-.225.679-.225.403 0 .73.301.983.904l.303.826c.15.403 13.824 49.622 39.033 57.68 4.94 1.58 10.767-.958 15.551-4.333 4.564-3.219 8.657-7.78 11.276-12.925-.15-2.669-.225-4.582-.225-5.741 0-6.747 1.233-13.822 3.7-21.224 8.46-2.669 17.775-5.111 27.946-7.327-1.916 9.419-2.874 17.981-2.874 25.687 0 15.212 3.492 28.61 10.477 40.194 2.965 4.938 6.055 8.552 9.271 10.843 3.215 2.292 6.808 3.438 10.778 3.438.854 0 1.834-.108 2.939-.322l1.131 3.174-34.062 16.39c-5.135-3.071-9.906-8.056-14.312-14.956-4.407-6.899-7.692-14.553-9.858-22.963-4.23 4.447-7.956 7.908-11.179 10.384-9.215 7.075-18.43 10.613-27.645 10.613-8.459 0-16.617-4.884-24.472-14.653m204.222-30.89c-3.542 6.441-5.313 12.781-5.313 19.018 0 6.038 1.387 10.794 4.16 14.266 2.571 3.17 5.723 4.755 9.455 4.755 1.412 0 2.924-.317 4.537-.95l1.285 3.626c-2.417 3.324-5.614 6.786-9.592 10.387-3.979 3.601-7.403 6.131-10.272 7.591a86.535 86.535 0 01-10.198-2.494 181.683 181.683 0 01-12.689-16.089c-3.621 2.82-6.613 5.011-8.976 6.572-8.853 5.995-17.329 8.992-25.427 8.992-5.432 0-9.857-1.434-13.277-4.302-3.923-3.372-5.885-7.749-5.885-13.133 0-7.647 2.113-16.05 6.338-25.208 4.426-9.61 9.631-16.554 15.616-20.831 4.677-3.371 9.48-5.056 14.409-5.056 5.885 0 11.644 1.566 17.277 4.699l-7.024 19.791c-3.403-1.167-6.355-1.75-8.858-1.75-1.801 0-3.478 1.084-5.03 3.254-3.153 4.59-4.73 9.156-4.73 13.697 0 2.725 1.205 4.088 3.614 4.088 1.756 0 4.165-.681 7.228-2.041 3.062-1.361 5.597-2.898 7.605-4.611 1.656-1.412 2.723-2.546 3.199-3.402.476-.857.815-2.318 1.016-4.384.451-3.88 1.957-8.403 4.517-13.568 2.561-5.166 5.246-9.084 8.056-11.754l18.959 8.837"/><path fill="#0066B3" d="M302.706 235.105l-19.411-30.606c-1.964-3.073-3.802-4.559-5.513-4.459-1.109.049-2.002.277-2.683.681-.68.405-2.454 1.77-5.324 4.095l-2.944-4.003c2.604-5.337 3.906-10.448 3.906-15.334 0-2.467-.698-6.244-2.093-11.329l17.146-6.154c1.41-.501 2.542-.752 3.398-.752 1.41 0 2.946 1.383 4.607 4.15l25.076 41.352c5.138-11.884 7.707-20.067 7.707-24.548 0-1.36-.436-2.405-1.308-3.135-.873-.73-2.779-1.674-5.72-2.833l-.604-2.115 15.483-13.746c4.078.554 7.049 1.121 8.912 1.699 1.864.579 4.331 1.649 7.402 3.21 2.268 2.417 3.728 4.935 4.382 7.554-1.409 6.8-4.078 14.733-8.006 23.799-3.927 9.066-8.384 17.578-13.369 25.537-15.912 25.284-33.158 37.927-51.738 37.927-3.928 0-8.133-.687-12.615-2.06l-7.552-22.887 1.887-.755c6.647 4.037 13.193 6.055 19.638 6.055 3.877 0 7.313-.875 10.31-2.626 2.996-1.751 6.005-4.657 9.026-8.717m89.26-39.862h36.97v17.017h-36.97z"/><path fill="#E2E42B" d="M158.415 121.665c0-10.959 8.883-19.843 19.842-19.843s19.843 8.884 19.843 19.843-8.884 19.842-19.843 19.842-19.842-8.883-19.842-19.842m55.555-45.356c0-8.494 6.886-15.381 15.38-15.381s15.38 6.887 15.38 15.381c0 8.495-6.886 15.381-15.38 15.381s-15.38-6.886-15.38-15.381m56.342-29.038c0-7.436 6.029-13.465 13.465-13.465s13.465 6.029 13.465 13.465-6.029 13.464-13.465 13.464-13.465-6.028-13.465-13.464m61.797-16.096c0-6.419 5.204-11.622 11.622-11.622 6.419 0 11.622 5.203 11.622 11.622 0 6.418-5.203 11.622-11.622 11.622-6.418 0-11.622-5.204-11.622-11.622m59.359 1.156a9.496 9.496 0 019.496-9.496 9.495 9.495 0 019.496 9.496 9.496 9.496 0 11-18.992 0m52.207 9.63a7.511 7.511 0 1115.023-.001 7.511 7.511 0 01-15.023.001m46.817 16.074a6.377 6.377 0 016.378-6.378 6.377 6.377 0 110 12.755 6.377 6.377 0 01-6.378-6.377"/><path fill="#FFF" d="M578.899 226.889a5.67 5.67 0 1111.339-.001 5.67 5.67 0 01-11.339.001"/><path fill="#0066B3" d="M306.04 305.973c-.425 2.224-1.325 3.849-2.674 4.899s-3.099 1.575-5.224 1.575c-1.675-.025-2.949-.3-3.799-.875s-1.375-1.325-1.6-2.299c-.2-.975-.2-2.049.05-3.274l2.025-10.697h3.199l-2.099 10.947c-.225 1.15-.15 2.025.275 2.624.4.575 1.2.875 2.399.875 1.25.025 2.199-.3 2.899-.925.7-.65 1.175-1.675 1.45-3.124l2-10.397h3.149l-2.05 10.671zm49.65-7.848c-.4-.15-.825-.25-1.225-.3-.4-.075-.8-.1-1.15-.1-1.075.025-1.85.25-2.324.675-.5.425-.725.95-.725 1.525.025.625.275 1.125.75 1.55.5.4 1.05.825 1.675 1.225.65.4 1.2.9 1.675 1.5.5.6.75 1.4.775 2.399-.025 1.675-.7 3.049-1.975 4.149s-2.949 1.65-5.049 1.7c-.55 0-1.075-.025-1.6-.075s-1-.125-1.45-.225l.575-3.074c.4.15.85.275 1.325.375.45.1.925.15 1.375.15 1.075 0 1.9-.225 2.449-.65.575-.425.85-1.025.85-1.8-.025-.6-.275-1.1-.75-1.475-.475-.4-1.025-.775-1.65-1.175-.65-.375-1.2-.875-1.675-1.45-.475-.6-.725-1.375-.75-2.374 0-1.025.25-1.975.75-2.824s1.225-1.525 2.224-2.025c.975-.525 2.199-.775 3.674-.8.475 0 .95.025 1.4.05s.9.1 1.375.175l-.549 2.874zm111.095 7.848c-.425 2.224-1.325 3.849-2.674 4.899s-3.099 1.575-5.224 1.575c-1.675-.025-2.949-.3-3.799-.875s-1.375-1.325-1.6-2.299c-.2-.975-.2-2.049.05-3.274l2.025-10.697h3.199l-2.099 10.947c-.225 1.15-.15 2.025.275 2.624.4.575 1.2.875 2.399.875 1.25.025 2.199-.3 2.899-.925.7-.65 1.175-1.675 1.45-3.124l2-10.397h3.149l-2.05 10.671zm22.65-7.848c-.4-.15-.825-.25-1.225-.3-.4-.075-.8-.1-1.15-.1-1.075.025-1.85.25-2.324.675-.5.425-.725.95-.725 1.525.025.625.275 1.125.75 1.55.5.4 1.05.825 1.675 1.225.65.4 1.2.9 1.675 1.5.5.6.75 1.4.775 2.399-.025 1.675-.7 3.049-1.975 4.149s-2.949 1.65-5.049 1.7c-.55 0-1.075-.025-1.6-.075s-1-.125-1.45-.225l.575-3.074c.4.15.85.275 1.325.375.45.1.925.15 1.375.15 1.075 0 1.9-.225 2.449-.65.575-.425.85-1.025.85-1.8-.025-.6-.275-1.1-.75-1.475-.475-.4-1.025-.775-1.65-1.175-.65-.375-1.2-.875-1.675-1.45-.475-.6-.725-1.375-.75-2.374 0-1.025.25-1.975.75-2.824s1.225-1.525 2.224-2.025c.975-.525 2.199-.775 3.674-.8.475 0 .95.025 1.4.05s.9.1 1.375.175l-.549 2.874zm87.573 0c-.4-.15-.825-.25-1.225-.3-.4-.075-.8-.1-1.15-.1-1.075.025-1.85.25-2.324.675-.5.425-.725.95-.725 1.525.025.625.275 1.125.75 1.55.5.4 1.05.825 1.675 1.225.65.4 1.2.9 1.675 1.5.5.6.75 1.4.775 2.399-.025 1.675-.7 3.049-1.975 4.149-1.275 1.1-2.949 1.65-5.049 1.7-.55 0-1.075-.025-1.6-.075-.525-.05-1-.125-1.45-.225l.575-3.074c.4.15.85.275 1.325.375.45.1.925.15 1.375.15 1.075 0 1.9-.225 2.449-.65.575-.425.85-1.025.85-1.8-.025-.6-.275-1.1-.75-1.475-.475-.4-1.025-.775-1.65-1.175-.65-.375-1.2-.875-1.675-1.45-.475-.6-.725-1.375-.75-2.374 0-1.025.25-1.975.75-2.824s1.225-1.525 2.224-2.025c.975-.525 2.199-.775 3.674-.8.475 0 .95.025 1.4.05s.9.1 1.375.175l-.549 2.874zm21.499 0c-.4-.15-.825-.25-1.225-.3-.4-.075-.8-.1-1.15-.1-1.075.025-1.85.25-2.324.675-.5.425-.725.95-.725 1.525.025.625.275 1.125.75 1.55.5.4 1.05.825 1.675 1.225.65.4 1.2.9 1.675 1.5.5.6.75 1.4.775 2.399-.025 1.675-.7 3.049-1.975 4.149-1.275 1.1-2.949 1.65-5.049 1.7-.55 0-1.075-.025-1.6-.075-.525-.05-1-.125-1.45-.225l.575-3.074c.4.15.85.275 1.325.375.45.1.925.15 1.375.15 1.075 0 1.9-.225 2.449-.65.575-.425.85-1.025.85-1.8-.025-.6-.275-1.1-.75-1.475-.475-.4-1.025-.775-1.65-1.175-.65-.375-1.2-.875-1.675-1.45-.475-.6-.725-1.375-.75-2.374 0-1.025.25-1.975.75-2.824s1.225-1.525 2.224-2.025c.975-.525 2.199-.775 3.674-.8.475 0 .95.025 1.4.05s.9.1 1.375.175l-.549 2.874zm-459.611 8.523c-.8 1.675-2 2.999-3.574 4.024-1.6 1.05-3.599 1.575-6.023 1.6-.975 0-1.825-.025-2.599-.05l-2.174-.075 3.199-16.821c.675-.025 1.475-.05 2.374-.075.925-.025 1.875-.05 2.824-.05 2.399 0 4.174.525 5.374 1.575 1.175 1.025 1.775 2.549 1.775 4.524-.001 1.924-.401 3.699-1.176 5.348zm301.941-5.124a5.602 5.602 0 01-2.349 1.725v.025c.7.175 1.25.55 1.625 1.1a3.5 3.5 0 01.575 1.95c0 1.075-.3 2.049-.9 2.949-.6.875-1.475 1.6-2.599 2.124s-2.474.8-4.049.825c-.575 0-1.275 0-2.099-.025-.85-.025-1.8-.025-2.849-.025l3.199-16.846c.725-.025 1.575-.075 2.549-.1.975 0 1.95-.025 2.899-.025 1.6 0 2.849.275 3.699.85s1.3 1.425 1.3 2.574c-.027 1.175-.352 2.15-1.001 2.899zM22.202 312.172h-3.199l3.199-16.871h3.199l-3.199 16.871zm27.122 0h-3.199l1.4-7.323h-7.023l-1.375 7.323h-3.199l3.199-16.871h3.199l-1.3 6.748h7.023l1.275-6.748h3.199l-3.199 16.871zm25.45-9.398c-.95 1-2.249 1.65-3.849 2 .175.275.325.575.5.9.15.325.325.625.475.95l2.849 5.549H70.95l-3.249-6.973h-.125l-1.325 6.973h-3.199l3.199-16.871c1.325-.075 2.874-.1 4.674-.1 1.825 0 3.174.35 4.024 1 .85.675 1.275 1.625 1.275 2.849-.025 1.499-.5 2.748-1.45 3.723zm23.924-4.749h-5.799l-.8 4.149h5.524l-.525 2.649H91.6l-.85 4.574h5.774l-.525 2.774h-8.973l3.199-16.871h8.973l-.5 2.725zm61.798 14.147l-.5-3.449h-6.249l-1.8 3.449h-3.324l8.998-16.871h3.599l2.699 16.871h-3.423zm27.149-14.097h-4.274l-2.699 14.097h-3.174l2.674-14.097h-4.274l.525-2.774h11.722l-.5 2.774zm20.924-.05h-5.799l-.8 4.149h5.524l-.525 2.649h-5.499l-.85 4.574h5.774l-.525 2.774h-8.973l3.199-16.871h8.973l-.499 2.725zm23.749 14.147h-3.724l-3.249-8.423c-.25-.625-.45-1.25-.65-1.875s-.35-1.225-.5-1.8c-.1.775-.225 1.575-.35 2.374s-.275 1.625-.425 2.449l-1.375 7.273h-3.099l3.199-16.871h3.774l3.149 7.973c.25.675.5 1.35.7 2.025s.4 1.325.575 1.975c.1-.775.225-1.6.375-2.474.125-.875.275-1.7.425-2.524l1.275-6.973h3.124l-3.224 16.871zm99.572 0h-3.724l-3.249-8.423c-.25-.625-.45-1.25-.65-1.875s-.35-1.225-.5-1.8c-.1.775-.225 1.575-.35 2.374s-.275 1.625-.425 2.449l-1.375 7.273h-3.099l3.199-16.871h3.774l3.149 7.973c.25.675.5 1.35.7 2.025s.4 1.325.575 1.975c.1-.775.225-1.6.375-2.474.125-.875.275-1.7.425-2.524l1.275-6.973h3.124l-3.224 16.871zm46.599-14.147h-5.799l-.8 4.149h5.524l-.525 2.649h-5.499l-.85 4.574h5.774l-.525 2.774h-8.973l3.199-16.871h8.973l-.499 2.725zm22.099 4.749c-.95 1-2.249 1.65-3.849 2 .175.275.325.575.5.9.15.325.325.625.475.95l2.849 5.549h-3.799l-3.249-6.973h-.125l-1.325 6.973h-3.199l3.199-16.871c1.325-.075 2.874-.1 4.674-.1 1.825 0 3.174.35 4.024 1 .85.675 1.275 1.625 1.275 2.849-.025 1.499-.5 2.748-1.45 3.723zm103.174 9.398h-3.199l3.199-16.871h3.199l-3.199 16.871zm27.097 0h-3.724l-3.249-8.423c-.25-.625-.45-1.25-.65-1.875s-.35-1.225-.5-1.8a90.4 90.4 0 01-.35 2.374c-.125.8-.275 1.625-.425 2.449l-1.375 7.273h-3.099l3.199-16.871h3.774l3.149 7.973c.25.675.5 1.35.7 2.025s.4 1.325.575 1.975c.1-.775.225-1.6.375-2.474.125-.875.275-1.7.425-2.524l1.275-6.973h3.124l-3.224 16.871zm25.399-14.147h-5.799l-.8 4.149h5.524l-.525 2.649h-5.499l-.85 4.574h5.774l-.525 2.774h-8.973l3.199-16.871h8.973l-.499 2.725zm-119.645 7.149c-.475-.3-1.175-.45-2.099-.45h-.95c-.325 0-.575 0-.775.025l-.875 4.724a10.231 10.231 0 001.6.1c1.25-.025 2.174-.325 2.824-.9.625-.6.95-1.3.95-2.124-.001-.601-.226-1.05-.675-1.375zm-300.841-6.224c-.625-.675-1.7-1-3.274-1.025-.875 0-1.575.025-2.099.075l-2.15 11.372c.225.05.475.075.75.1.275.025.55.025.775.025 1.7-.025 3.049-.475 4.049-1.325a6.928 6.928 0 002.199-3.074c.45-1.2.65-2.349.65-3.474.025-1.124-.275-2.024-.9-2.674zm121.773 7.398v-2.799h12.497v2.799h-12.497zm-98.599-4.624a30.84 30.84 0 01-.275-2.699h-.025c-.175.45-.4.9-.6 1.375-.225.475-.475.95-.725 1.45l-2.299 4.299h4.649l-.725-4.425zM72.25 298.3c-.375-.3-1-.45-1.85-.45-.3 0-.575 0-.825.025-.25 0-.45.025-.625.05l-.925 4.874c.1.025.25.025.425.025.175.025.4.025.675.025 1.1-.025 1.974-.3 2.649-.9.675-.575 1.025-1.325 1.05-2.299.001-.6-.174-1.025-.574-1.35zm325.814 0c-.375-.3-1-.45-1.85-.45-.3 0-.575 0-.825.025-.25 0-.45.025-.625.05l-.925 4.874c.1.025.25.025.425.025.175.025.4.025.675.025 1.1-.025 1.975-.3 2.649-.9.675-.575 1.025-1.325 1.05-2.299.001-.6-.174-1.025-.574-1.35zm39.798-.05c-.375-.275-.975-.425-1.85-.425-.725 0-1.35.025-1.9.05l-.85 4.399c.175.025.375.025.55.025h.6c1.175 0 2.124-.275 2.849-.775.725-.525 1.1-1.225 1.125-2.149.001-.475-.174-.85-.524-1.125z"/><path fill="#E2E42B" d="M529.731 82.877a5.767 5.767 0 0111.535 0 5.767 5.767 0 11-11.535 0"/><path fill="#0066B3" d="M510.815 222.159c0 3.185-.91 5.551-2.73 7.28s-4.367 2.639-7.734 2.639c-3.458 0-6.005-.819-7.825-2.457-1.729-1.547-2.639-3.913-2.639-7.098v-47.686c0-3.185.91-5.551 2.73-7.28s4.458-2.639 7.734-2.639c3.458 0 6.005.819 7.825 2.457 1.729 1.638 2.639 4.004 2.639 7.098v47.686zm17.311-40.034c-3.002.052-5.289-.636-6.859-1.974-1.572-1.429-2.336-3.509-2.385-6.33-.048-2.73.733-4.928 2.254-6.41 1.612-1.484 3.874-2.252 6.876-2.304l44.031-.768c3.002-.052 5.289.636 6.863 2.156 1.572 1.429 2.43 3.689 2.481 6.601.046 2.639-.738 4.655-2.261 6.047-1.523 1.392-3.784 2.159-6.695 2.21l-11.645.203.692 39.671c.054 3.094-.815 5.475-2.605 7.145-1.7 1.668-4.324 2.533-7.69 2.592-3.366.059-5.929-.807-7.779-2.504-1.941-1.695-2.892-4.045-2.947-7.23l-.686-39.307-11.645.202z"/><path fill="#E2E42B" d="M563.727 116.084a4.96 4.96 0 119.921 0 4.96 4.96 0 01-9.921 0"/></svg>